<?xml version="1.0" encoding="UTF-8"?> <svg xmlns="http://www.w3.org/2000/svg" version="1.0" width="512px" height="512px" viewBox="0 0 512 512" preserveAspectRatio="xMidYMid meet"><g fill="#000000"><path d="M237.5 505.4 c-38.3 -3.9 -67.1 -12.2 -96.5 -27.6 -23.9 -12.5 -42.3 -26 -61.5 -45.3 -40 -39.9 -63.6 -87.9 -71.7 -146 -1.6 -11.6 -1.6 -49.4 0 -61 5.7 -40.4 18.3 -74.6 39.6 -107 40.2 -61 103.3 -100.3 177.6 -110.6 12.1 -1.7 49.6 -1.8 61.5 -0.1 41.2 5.8 75.1 18.5 108.5 40.7 47.9 31.8 83.5 80 100.3 135.5 7.4 24.5 10.2 43.9 10.2 72 0 11.9 -0.6 25.5 -1.3 30.5 -6.6 47.3 -23.4 87.5 -52 124.5 -8.5 10.9 -30.3 32.7 -41.2 41.2 -36.5 28.2 -76.9 45.2 -123 51.8 -7.9 1.1 -43.6 2.1 -50.5 1.4z m74.6 -132.7 c11.8 -3.8 22.2 -11.6 29.5 -22.3 l3.9 -5.7 0.3 12.2 0.3 12.1 21.9 0 22 0 0 -123 c0 -67.6 0 -123.3 0 -123.7 0 -0.5 -10.3 -0.9 -23 -1.1 l-23 -0.2 0 42.7 -0.1 42.8 -3.1 -4 c-11.9 -14.9 -24.4 -21.4 -42.8 -22.2 -23 -1.1 -41.6 7.3 -56 25 -24 29.4 -29.4 90.9 -11.3 127.2 7.5 15 20.3 29 32.2 35.4 10.3 5.4 18.8 7.2 32.6 6.7 6.6 -0.3 14.1 -1.1 16.6 -1.9z m-136.1 -77.4 l-0.1 -73.8 14.6 -0.3 14.5 -0.3 0 -16.9 0 -16.9 -14.6 -0.3 -14.7 -0.3 0.2 -10 c0.3 -15.2 3.4 -18.5 17.4 -18.5 4.2 0 8.2 -0.3 9.1 -0.6 1.4 -0.5 1.6 -3.2 1.6 -19.4 l0 -18.8 -3.1 -0.6 c-5.5 -1.1 -27.1 -0.6 -34.9 0.8 -14.7 2.7 -23.4 7.8 -29 17.1 -5 8.4 -7 17.5 -7.7 35.3 l-0.6 15.2 -12.4 0 -12.3 0 0 17 0 17 13 0 13 0 0 74 0 74 23 0 23 0 0 -73.7z"></path><path d="M296.7 334 c-13.7 -3.5 -23.2 -15.5 -27.2 -34.5 -2.5 -11.7 -2.3 -31.5 0.4 -42.8 4.8 -20.3 13.6 -30.7 28.5 -33.7 20.7 -4.2 38.2 9.1 44.3 33.6 2.4 9.8 2.4 35.4 0 44.4 -4.3 16 -13.1 27.9 -23.5 31.5 -5.7 2 -17.4 2.8 -22.5 1.5z"></path></g></svg> 