<?xml version="1.0" encoding="UTF-8"?>
<svg xmlns="http://www.w3.org/2000/svg" xmlns:xlink="http://www.w3.org/1999/xlink" width="54px" height="54px" viewBox="0 0 54 54" version="1.1">
<g id="surface1">
<path style=" stroke:none;fill-rule:nonzero;fill:rgb(0%,0%,0%);fill-opacity:1;" d="M 25.046875 53.304688 C 21.007812 52.890625 17.972656 52.015625 14.871094 50.394531 C 12.351562 49.074219 10.410156 47.652344 8.382812 45.613281 C 4.164062 41.40625 1.675781 36.34375 0.824219 30.214844 C 0.652344 28.992188 0.652344 25.007812 0.824219 23.78125 C 1.421875 19.523438 2.753906 15.914062 5 12.496094 C 9.238281 6.0625 15.894531 1.917969 23.730469 0.832031 C 25.007812 0.652344 28.960938 0.644531 30.21875 0.824219 C 34.5625 1.433594 38.136719 2.773438 41.660156 5.113281 C 46.710938 8.46875 50.46875 13.550781 52.238281 19.40625 C 53.019531 21.988281 53.3125 24.035156 53.3125 27 C 53.3125 28.253906 53.25 29.6875 53.175781 30.214844 C 52.480469 35.207031 50.710938 39.445312 47.691406 43.347656 C 46.796875 44.496094 44.496094 46.796875 43.347656 47.691406 C 39.5 50.667969 35.238281 52.460938 30.375 53.15625 C 29.542969 53.273438 25.777344 53.378906 25.046875 53.304688 Z M 32.917969 39.308594 C 34.160156 38.90625 35.257812 38.085938 36.027344 36.957031 L 36.4375 36.355469 L 36.472656 37.640625 L 36.503906 38.917969 L 41.132812 38.917969 L 41.132812 25.945312 C 41.132812 18.816406 41.132812 12.941406 41.132812 12.898438 C 41.132812 12.847656 40.046875 12.804688 38.707031 12.78125 L 36.28125 12.761719 L 36.28125 17.265625 L 36.269531 21.78125 L 35.945312 21.359375 C 34.6875 19.785156 33.371094 19.101562 31.429688 19.015625 C 29.003906 18.898438 27.042969 19.785156 25.523438 21.652344 C 22.992188 24.753906 22.421875 31.238281 24.332031 35.070312 C 25.121094 36.648438 26.472656 38.125 27.726562 38.800781 C 28.8125 39.371094 29.710938 39.5625 31.164062 39.507812 C 31.863281 39.476562 32.652344 39.390625 32.917969 39.308594 Z M 18.5625 31.144531 L 18.550781 23.359375 L 20.09375 23.328125 L 21.621094 23.296875 L 21.621094 19.734375 L 20.082031 19.703125 L 18.53125 19.667969 L 18.550781 18.613281 C 18.582031 17.011719 18.910156 16.664062 20.386719 16.664062 C 20.832031 16.664062 21.253906 16.632812 21.347656 16.601562 C 21.496094 16.546875 21.515625 16.261719 21.515625 14.554688 L 21.515625 12.570312 L 21.1875 12.507812 C 20.609375 12.390625 18.332031 12.445312 17.507812 12.59375 C 15.957031 12.878906 15.039062 13.414062 14.449219 14.394531 C 13.921875 15.28125 13.710938 16.242188 13.636719 18.121094 L 13.574219 19.722656 L 10.96875 19.722656 L 10.96875 23.308594 L 13.710938 23.308594 L 13.710938 38.917969 L 18.5625 38.917969 Z M 18.5625 31.144531 "/>
<path style=" stroke:none;fill-rule:nonzero;fill:rgb(0%,0%,0%);fill-opacity:1;" d="M 31.292969 35.226562 C 29.847656 34.859375 28.84375 33.59375 28.421875 31.585938 C 28.160156 30.355469 28.179688 28.265625 28.464844 27.074219 C 28.972656 24.933594 29.898438 23.835938 31.472656 23.519531 C 33.65625 23.078125 35.5 24.480469 36.144531 27.0625 C 36.398438 28.097656 36.398438 30.796875 36.144531 31.746094 C 35.691406 33.433594 34.761719 34.6875 33.664062 35.070312 C 33.0625 35.28125 31.832031 35.363281 31.292969 35.226562 Z M 31.292969 35.226562 "/>
</g>
</svg>
