<svg width="54" height="54" xmlns="http://www.w3.org/2000/svg" version="1.1">

 <g>
  <title>Layer 1</title>
  <rect id="svg_3" height="33.57111" width="33.21397" y="10.21445" x="10.39302" stroke="#ffffff" fill="#fff"/>
  <rect id="svg_4" height="0" width="0.35714" y="28.07142" x="13.07156" stroke="#ffffff" fill="#fff"/>
  <g id="surface1">
   <path id="svg_1" fill="rgb(0%,0%,0%)" fill-rule="nonzero" d="m25.04688,53.30469c-4.03907,-0.41406 -7.07422,-1.28906 -10.17579,-2.91016c-2.51953,-1.32031 -4.46093,-2.74219 -6.48828,-4.78125c-4.21875,-4.20703 -6.70703,-9.26953 -7.55859,-15.39844c-0.17188,-1.22265 -0.17188,-5.20703 0,-6.43359c0.59766,-4.25781 1.92969,-7.86719 4.17578,-11.28516c4.23828,-6.43359 10.89453,-10.57812 18.73047,-11.66406c1.27734,-0.17969 5.23047,-0.1875 6.48828,-0.00781c4.34375,0.60937 7.91797,1.94922 11.44141,4.28906c5.05078,3.35547 8.80859,8.4375 10.57812,14.29297c0.78125,2.58203 1.07422,4.62891 1.07422,7.59375c0,1.25391 -0.0625,2.6875 -0.13672,3.21484c-0.69531,4.99219 -2.46484,9.23047 -5.48437,13.13282c-0.89453,1.14843 -3.19532,3.44922 -4.34375,4.34375c-3.84766,2.97656 -8.10938,4.76953 -12.97266,5.46484c-0.83203,0.11719 -4.59766,0.22266 -5.32812,0.14844zm7.87109,-13.9961c1.24219,-0.40234 2.33984,-1.22265 3.10937,-2.35156l0.41016,-0.60156l0.03516,1.28516l0.03125,1.27734l4.6289,0l0,-12.97266c0,-7.1289 0,-13.0039 0,-13.04687c0,-0.05078 -1.08593,-0.09375 -2.42578,-0.11719l-2.42578,-0.01953l0,4.50391l-0.01172,4.51562l-0.32422,-0.42187c-1.25781,-1.57422 -2.57422,-2.25782 -4.51562,-2.34375c-2.42578,-0.11719 -4.38672,0.76953 -5.90625,2.63671c-2.53125,3.10157 -3.10156,9.58594 -1.19141,13.41797c0.78906,1.57813 2.14063,3.05469 3.39453,3.73047c1.08594,0.57031 1.98438,0.76172 3.4375,0.70703c0.69922,-0.03125 1.48828,-0.11718 1.75391,-0.19922zm-14.35547,-8.16406l-0.01172,-7.78515l1.54297,-0.03125l1.52734,-0.03125l0,-3.5625l-1.53906,-0.03125l-1.55078,-0.03516l0.01953,-1.05469c0.03125,-1.60156 0.35938,-1.94922 1.83594,-1.94922c0.44531,0 0.86719,-0.03125 0.96094,-0.0625c0.14843,-0.05468 0.16797,-0.33984 0.16797,-2.04687l0,-1.98438l-0.32813,-0.0625c-0.57812,-0.11718 -2.85547,-0.0625 -3.67969,0.08594c-1.55078,0.28516 -2.46875,0.82031 -3.05859,1.80078c-0.52734,0.88672 -0.73828,1.84766 -0.8125,3.72656l-0.0625,1.60157l-2.60547,0l0,3.58593l2.74219,0l0,15.60938l4.85156,0l0,-7.77344zm0,0"/>
   <path id="svg_2" fill="rgb(0%,0%,0%)" fill-rule="nonzero" d="m31.29297,35.22656c-1.44531,-0.36718 -2.44922,-1.63281 -2.87109,-3.64062c-0.26172,-1.23047 -0.24219,-3.32031 0.04296,-4.51172c0.50782,-2.14063 1.4336,-3.23828 3.00782,-3.55469c2.18359,-0.4414 4.02734,0.96094 4.67187,3.54297c0.25391,1.03516 0.25391,3.73438 0,4.68359c-0.45312,1.6875 -1.38281,2.94141 -2.48047,3.32422c-0.60156,0.21094 -1.83203,0.29297 -2.37109,0.15625zm0,0"/>
  </g>
 </g>
</svg>